<mxfile host="app.diagrams.net" agent="Mozilla/5.0 (Windows NT 10.0; Win64; x64) AppleWebKit/537.36 (KHTML, like Gecko) Chrome/132.0.0.0 Safari/537.36" version="26.0.9">
  <diagram name="PÃ¡gina-1" id="TvYG14Qko4ZeJ21JqZOj">
    <mxGraphModel dx="3412" dy="1130" grid="0" gridSize="10" guides="1" tooltips="1" connect="1" arrows="1" fold="1" page="0" pageScale="1" pageWidth="827" pageHeight="1169" background="#ffffff" math="0" shadow="0">
      <root>
        <mxCell id="0" />
        <mxCell id="1" parent="0" />
        <mxCell id="zRnEoflxh51FS6Fjrhx--1" value="&lt;font style=&quot;vertical-align: inherit;&quot;&gt;&lt;font style=&quot;vertical-align: inherit; font-size: 25px;&quot;&gt;&lt;b&gt;SQL&lt;/b&gt;&lt;/font&gt;&lt;/font&gt;" style="shape=cylinder3;whiteSpace=wrap;html=1;boundedLbl=1;backgroundOutline=1;size=15;fillColor=#3333FF;" vertex="1" parent="1">
          <mxGeometry x="481" y="500" width="150" height="202" as="geometry" />
        </mxCell>
        <mxCell id="zRnEoflxh51FS6Fjrhx--2" value="Tabla 1 centros" style="shape=table;startSize=30;container=1;collapsible=0;childLayout=tableLayout;strokeColor=#000000;fontSize=16;fillColor=#00FF00;" vertex="1" parent="1">
          <mxGeometry x="152.91" y="261" width="961.1024137931038" height="107.00000000000006" as="geometry" />
        </mxCell>
        <mxCell id="zRnEoflxh51FS6Fjrhx--3" value="" style="shape=tableRow;horizontal=0;startSize=0;swimlaneHead=0;swimlaneBody=0;strokeColor=inherit;top=0;left=0;bottom=0;right=0;collapsible=0;dropTarget=0;fillColor=none;points=[[0,0.5],[1,0.5]];portConstraint=eastwest;fontSize=16;" vertex="1" parent="zRnEoflxh51FS6Fjrhx--2">
          <mxGeometry y="30" width="961.1024137931038" height="38" as="geometry" />
        </mxCell>
        <mxCell id="zRnEoflxh51FS6Fjrhx--25" value="id_centro" style="shape=partialRectangle;html=1;whiteSpace=wrap;connectable=0;strokeColor=inherit;overflow=hidden;fillColor=none;top=0;left=0;bottom=0;right=0;pointerEvents=1;fontSize=16;" vertex="1" parent="zRnEoflxh51FS6Fjrhx--3">
          <mxGeometry width="104" height="38" as="geometry">
            <mxRectangle width="104" height="38" as="alternateBounds" />
          </mxGeometry>
        </mxCell>
        <mxCell id="zRnEoflxh51FS6Fjrhx--4" value="nombre_centros_etnoeducativos" style="shape=partialRectangle;html=1;whiteSpace=wrap;connectable=0;strokeColor=inherit;overflow=hidden;fillColor=none;top=0;left=0;bottom=0;right=0;pointerEvents=1;fontSize=16;" vertex="1" parent="zRnEoflxh51FS6Fjrhx--3">
          <mxGeometry x="104" width="275" height="38" as="geometry">
            <mxRectangle width="275" height="38" as="alternateBounds" />
          </mxGeometry>
        </mxCell>
        <mxCell id="zRnEoflxh51FS6Fjrhx--5" value="codigo_dane" style="shape=partialRectangle;html=1;whiteSpace=wrap;connectable=0;strokeColor=inherit;overflow=hidden;fillColor=none;top=0;left=0;bottom=0;right=0;pointerEvents=1;fontSize=16;" vertex="1" parent="zRnEoflxh51FS6Fjrhx--3">
          <mxGeometry x="379" width="105" height="38" as="geometry">
            <mxRectangle width="105" height="38" as="alternateBounds" />
          </mxGeometry>
        </mxCell>
        <mxCell id="zRnEoflxh51FS6Fjrhx--6" value="Comunidad" style="shape=partialRectangle;html=1;whiteSpace=wrap;connectable=0;strokeColor=inherit;overflow=hidden;fillColor=none;top=0;left=0;bottom=0;right=0;pointerEvents=1;fontSize=16;" vertex="1" parent="zRnEoflxh51FS6Fjrhx--3">
          <mxGeometry x="484" width="103" height="38" as="geometry">
            <mxRectangle width="103" height="38" as="alternateBounds" />
          </mxGeometry>
        </mxCell>
        <mxCell id="zRnEoflxh51FS6Fjrhx--15" value="nit" style="shape=partialRectangle;html=1;whiteSpace=wrap;connectable=0;strokeColor=inherit;overflow=hidden;fillColor=none;top=0;left=0;bottom=0;right=0;pointerEvents=1;fontSize=16;" vertex="1" parent="zRnEoflxh51FS6Fjrhx--3">
          <mxGeometry x="587" width="66" height="38" as="geometry">
            <mxRectangle width="66" height="38" as="alternateBounds" />
          </mxGeometry>
        </mxCell>
        <mxCell id="zRnEoflxh51FS6Fjrhx--18" value="celular" style="shape=partialRectangle;html=1;whiteSpace=wrap;connectable=0;strokeColor=inherit;overflow=hidden;fillColor=none;top=0;left=0;bottom=0;right=0;pointerEvents=1;fontSize=16;" vertex="1" parent="zRnEoflxh51FS6Fjrhx--3">
          <mxGeometry x="653" width="103" height="38" as="geometry">
            <mxRectangle width="103" height="38" as="alternateBounds" />
          </mxGeometry>
        </mxCell>
        <mxCell id="zRnEoflxh51FS6Fjrhx--61" value="sede (tipo enfoque: principal,sede)" style="shape=partialRectangle;html=1;whiteSpace=wrap;connectable=0;strokeColor=inherit;overflow=hidden;fillColor=none;top=0;left=0;bottom=0;right=0;pointerEvents=1;fontSize=16;" vertex="1" parent="zRnEoflxh51FS6Fjrhx--3">
          <mxGeometry x="756" width="205" height="38" as="geometry">
            <mxRectangle width="205" height="38" as="alternateBounds" />
          </mxGeometry>
        </mxCell>
        <mxCell id="zRnEoflxh51FS6Fjrhx--7" value="" style="shape=tableRow;horizontal=0;startSize=0;swimlaneHead=0;swimlaneBody=0;strokeColor=inherit;top=0;left=0;bottom=0;right=0;collapsible=0;dropTarget=0;fillColor=none;points=[[0,0.5],[1,0.5]];portConstraint=eastwest;fontSize=16;" vertex="1" parent="zRnEoflxh51FS6Fjrhx--2">
          <mxGeometry y="68" width="961.1024137931038" height="39" as="geometry" />
        </mxCell>
        <mxCell id="zRnEoflxh51FS6Fjrhx--26" style="shape=partialRectangle;html=1;whiteSpace=wrap;connectable=0;strokeColor=inherit;overflow=hidden;fillColor=none;top=0;left=0;bottom=0;right=0;pointerEvents=1;fontSize=16;" vertex="1" parent="zRnEoflxh51FS6Fjrhx--7">
          <mxGeometry width="104" height="39" as="geometry">
            <mxRectangle width="104" height="39" as="alternateBounds" />
          </mxGeometry>
        </mxCell>
        <mxCell id="zRnEoflxh51FS6Fjrhx--8" value="" style="shape=partialRectangle;html=1;whiteSpace=wrap;connectable=0;strokeColor=inherit;overflow=hidden;fillColor=none;top=0;left=0;bottom=0;right=0;pointerEvents=1;fontSize=16;" vertex="1" parent="zRnEoflxh51FS6Fjrhx--7">
          <mxGeometry x="104" width="275" height="39" as="geometry">
            <mxRectangle width="275" height="39" as="alternateBounds" />
          </mxGeometry>
        </mxCell>
        <mxCell id="zRnEoflxh51FS6Fjrhx--9" value="" style="shape=partialRectangle;html=1;whiteSpace=wrap;connectable=0;strokeColor=inherit;overflow=hidden;fillColor=none;top=0;left=0;bottom=0;right=0;pointerEvents=1;fontSize=16;" vertex="1" parent="zRnEoflxh51FS6Fjrhx--7">
          <mxGeometry x="379" width="105" height="39" as="geometry">
            <mxRectangle width="105" height="39" as="alternateBounds" />
          </mxGeometry>
        </mxCell>
        <mxCell id="zRnEoflxh51FS6Fjrhx--10" value="" style="shape=partialRectangle;html=1;whiteSpace=wrap;connectable=0;strokeColor=inherit;overflow=hidden;fillColor=none;top=0;left=0;bottom=0;right=0;pointerEvents=1;fontSize=16;" vertex="1" parent="zRnEoflxh51FS6Fjrhx--7">
          <mxGeometry x="484" width="103" height="39" as="geometry">
            <mxRectangle width="103" height="39" as="alternateBounds" />
          </mxGeometry>
        </mxCell>
        <mxCell id="zRnEoflxh51FS6Fjrhx--16" style="shape=partialRectangle;html=1;whiteSpace=wrap;connectable=0;strokeColor=inherit;overflow=hidden;fillColor=none;top=0;left=0;bottom=0;right=0;pointerEvents=1;fontSize=16;" vertex="1" parent="zRnEoflxh51FS6Fjrhx--7">
          <mxGeometry x="587" width="66" height="39" as="geometry">
            <mxRectangle width="66" height="39" as="alternateBounds" />
          </mxGeometry>
        </mxCell>
        <mxCell id="zRnEoflxh51FS6Fjrhx--19" style="shape=partialRectangle;html=1;whiteSpace=wrap;connectable=0;strokeColor=inherit;overflow=hidden;fillColor=none;top=0;left=0;bottom=0;right=0;pointerEvents=1;fontSize=16;" vertex="1" parent="zRnEoflxh51FS6Fjrhx--7">
          <mxGeometry x="653" width="103" height="39" as="geometry">
            <mxRectangle width="103" height="39" as="alternateBounds" />
          </mxGeometry>
        </mxCell>
        <mxCell id="zRnEoflxh51FS6Fjrhx--62" style="shape=partialRectangle;html=1;whiteSpace=wrap;connectable=0;strokeColor=inherit;overflow=hidden;fillColor=none;top=0;left=0;bottom=0;right=0;pointerEvents=1;fontSize=16;" vertex="1" parent="zRnEoflxh51FS6Fjrhx--7">
          <mxGeometry x="756" width="205" height="39" as="geometry">
            <mxRectangle width="205" height="39" as="alternateBounds" />
          </mxGeometry>
        </mxCell>
        <mxCell id="zRnEoflxh51FS6Fjrhx--27" style="edgeStyle=none;curved=1;rounded=0;orthogonalLoop=1;jettySize=auto;html=1;entryX=0.497;entryY=0.974;entryDx=0;entryDy=0;entryPerimeter=0;fontSize=12;startSize=8;endSize=8;" edge="1" parent="1" source="zRnEoflxh51FS6Fjrhx--1" target="zRnEoflxh51FS6Fjrhx--7">
          <mxGeometry relative="1" as="geometry" />
        </mxCell>
        <mxCell id="zRnEoflxh51FS6Fjrhx--29" value="Tabla 2 grados" style="shape=table;startSize=30;container=1;collapsible=0;childLayout=tableLayout;strokeColor=#000000;fontSize=16;fillColor=#00FF00;" vertex="1" parent="1">
          <mxGeometry x="-694" y="405" width="1026.358648992878" height="112.5431034482757" as="geometry" />
        </mxCell>
        <mxCell id="zRnEoflxh51FS6Fjrhx--30" value="" style="shape=tableRow;horizontal=0;startSize=0;swimlaneHead=0;swimlaneBody=0;strokeColor=inherit;top=0;left=0;bottom=0;right=0;collapsible=0;dropTarget=0;fillColor=none;points=[[0,0.5],[1,0.5]];portConstraint=eastwest;fontSize=16;" vertex="1" parent="zRnEoflxh51FS6Fjrhx--29">
          <mxGeometry y="30" width="1026.358648992878" height="40" as="geometry" />
        </mxCell>
        <mxCell id="zRnEoflxh51FS6Fjrhx--31" value="id_grado" style="shape=partialRectangle;html=1;whiteSpace=wrap;connectable=0;strokeColor=inherit;overflow=hidden;fillColor=none;top=0;left=0;bottom=0;right=0;pointerEvents=1;fontSize=16;" vertex="1" parent="zRnEoflxh51FS6Fjrhx--30">
          <mxGeometry width="100" height="40" as="geometry">
            <mxRectangle width="100" height="40" as="alternateBounds" />
          </mxGeometry>
        </mxCell>
        <mxCell id="zRnEoflxh51FS6Fjrhx--32" value="id_centro (clave foranea)" style="shape=partialRectangle;html=1;whiteSpace=wrap;connectable=0;strokeColor=inherit;overflow=hidden;fillColor=none;top=0;left=0;bottom=0;right=0;pointerEvents=1;fontSize=16;" vertex="1" parent="zRnEoflxh51FS6Fjrhx--30">
          <mxGeometry x="100" width="193" height="40" as="geometry">
            <mxRectangle width="193" height="40" as="alternateBounds" />
          </mxGeometry>
        </mxCell>
        <mxCell id="zRnEoflxh51FS6Fjrhx--33" value="nombre_grado" style="shape=partialRectangle;html=1;whiteSpace=wrap;connectable=0;strokeColor=inherit;overflow=hidden;fillColor=none;top=0;left=0;bottom=0;right=0;pointerEvents=1;fontSize=16;" vertex="1" parent="zRnEoflxh51FS6Fjrhx--30">
          <mxGeometry x="293" width="157" height="40" as="geometry">
            <mxRectangle width="157" height="40" as="alternateBounds" />
          </mxGeometry>
        </mxCell>
        <mxCell id="zRnEoflxh51FS6Fjrhx--34" value="nivel (tipo enfoque primaria, secundaria)" style="shape=partialRectangle;html=1;whiteSpace=wrap;connectable=0;strokeColor=inherit;overflow=hidden;fillColor=none;top=0;left=0;bottom=0;right=0;pointerEvents=1;fontSize=16;" vertex="1" parent="zRnEoflxh51FS6Fjrhx--30">
          <mxGeometry x="450" width="301" height="40" as="geometry">
            <mxRectangle width="301" height="40" as="alternateBounds" />
          </mxGeometry>
        </mxCell>
        <mxCell id="zRnEoflxh51FS6Fjrhx--35" value="horario (tipo Enfoque maÃ±ana , tarde)" style="shape=partialRectangle;html=1;whiteSpace=wrap;connectable=0;strokeColor=inherit;overflow=hidden;fillColor=none;top=0;left=0;bottom=0;right=0;pointerEvents=1;fontSize=16;" vertex="1" parent="zRnEoflxh51FS6Fjrhx--30">
          <mxGeometry x="751" width="275" height="40" as="geometry">
            <mxRectangle width="275" height="40" as="alternateBounds" />
          </mxGeometry>
        </mxCell>
        <mxCell id="zRnEoflxh51FS6Fjrhx--37" value="" style="shape=tableRow;horizontal=0;startSize=0;swimlaneHead=0;swimlaneBody=0;strokeColor=inherit;top=0;left=0;bottom=0;right=0;collapsible=0;dropTarget=0;fillColor=none;points=[[0,0.5],[1,0.5]];portConstraint=eastwest;fontSize=16;" vertex="1" parent="zRnEoflxh51FS6Fjrhx--29">
          <mxGeometry y="70" width="1026.358648992878" height="43" as="geometry" />
        </mxCell>
        <mxCell id="zRnEoflxh51FS6Fjrhx--38" style="shape=partialRectangle;html=1;whiteSpace=wrap;connectable=0;strokeColor=inherit;overflow=hidden;fillColor=none;top=0;left=0;bottom=0;right=0;pointerEvents=1;fontSize=16;" vertex="1" parent="zRnEoflxh51FS6Fjrhx--37">
          <mxGeometry width="100" height="43" as="geometry">
            <mxRectangle width="100" height="43" as="alternateBounds" />
          </mxGeometry>
        </mxCell>
        <mxCell id="zRnEoflxh51FS6Fjrhx--39" value="" style="shape=partialRectangle;html=1;whiteSpace=wrap;connectable=0;strokeColor=inherit;overflow=hidden;fillColor=none;top=0;left=0;bottom=0;right=0;pointerEvents=1;fontSize=16;" vertex="1" parent="zRnEoflxh51FS6Fjrhx--37">
          <mxGeometry x="100" width="193" height="43" as="geometry">
            <mxRectangle width="193" height="43" as="alternateBounds" />
          </mxGeometry>
        </mxCell>
        <mxCell id="zRnEoflxh51FS6Fjrhx--40" value="" style="shape=partialRectangle;html=1;whiteSpace=wrap;connectable=0;strokeColor=inherit;overflow=hidden;fillColor=none;top=0;left=0;bottom=0;right=0;pointerEvents=1;fontSize=16;" vertex="1" parent="zRnEoflxh51FS6Fjrhx--37">
          <mxGeometry x="293" width="157" height="43" as="geometry">
            <mxRectangle width="157" height="43" as="alternateBounds" />
          </mxGeometry>
        </mxCell>
        <mxCell id="zRnEoflxh51FS6Fjrhx--41" value="" style="shape=partialRectangle;html=1;whiteSpace=wrap;connectable=0;strokeColor=inherit;overflow=hidden;fillColor=none;top=0;left=0;bottom=0;right=0;pointerEvents=1;fontSize=16;" vertex="1" parent="zRnEoflxh51FS6Fjrhx--37">
          <mxGeometry x="450" width="301" height="43" as="geometry">
            <mxRectangle width="301" height="43" as="alternateBounds" />
          </mxGeometry>
        </mxCell>
        <mxCell id="zRnEoflxh51FS6Fjrhx--42" style="shape=partialRectangle;html=1;whiteSpace=wrap;connectable=0;strokeColor=inherit;overflow=hidden;fillColor=none;top=0;left=0;bottom=0;right=0;pointerEvents=1;fontSize=16;" vertex="1" parent="zRnEoflxh51FS6Fjrhx--37">
          <mxGeometry x="751" width="275" height="43" as="geometry">
            <mxRectangle width="275" height="43" as="alternateBounds" />
          </mxGeometry>
        </mxCell>
        <mxCell id="zRnEoflxh51FS6Fjrhx--59" style="edgeStyle=none;curved=1;rounded=0;orthogonalLoop=1;jettySize=auto;html=1;entryX=1.009;entryY=-0.103;entryDx=0;entryDy=0;entryPerimeter=0;fontSize=12;startSize=8;endSize=8;" edge="1" parent="1" source="zRnEoflxh51FS6Fjrhx--1" target="zRnEoflxh51FS6Fjrhx--37">
          <mxGeometry relative="1" as="geometry" />
        </mxCell>
        <mxCell id="zRnEoflxh51FS6Fjrhx--60" style="edgeStyle=none;curved=1;rounded=0;orthogonalLoop=1;jettySize=auto;html=1;entryX=1;entryY=0.5;entryDx=0;entryDy=0;fontSize=12;startSize=8;endSize=8;" edge="1" parent="1" source="zRnEoflxh51FS6Fjrhx--1" target="zRnEoflxh51FS6Fjrhx--69">
          <mxGeometry relative="1" as="geometry">
            <mxPoint x="41.16000000000008" y="726.7520000000002" as="targetPoint" />
          </mxGeometry>
        </mxCell>
        <mxCell id="zRnEoflxh51FS6Fjrhx--65" style="edgeStyle=none;curved=1;rounded=0;orthogonalLoop=1;jettySize=auto;html=1;fontSize=12;startSize=8;endSize=8;entryX=0.25;entryY=0;entryDx=0;entryDy=0;" edge="1" parent="1" source="zRnEoflxh51FS6Fjrhx--3" target="zRnEoflxh51FS6Fjrhx--29">
          <mxGeometry relative="1" as="geometry">
            <mxPoint x="-212" y="382" as="targetPoint" />
            <Array as="points">
              <mxPoint x="88" y="311" />
              <mxPoint x="-296" y="295" />
            </Array>
          </mxGeometry>
        </mxCell>
        <mxCell id="zRnEoflxh51FS6Fjrhx--66" value="&lt;font style=&quot;font-size: 18px;&quot;&gt;Clave forÃ¡nea&lt;/font&gt;" style="edgeLabel;html=1;align=center;verticalAlign=middle;resizable=0;points=[];fontSize=12;" vertex="1" connectable="0" parent="zRnEoflxh51FS6Fjrhx--65">
          <mxGeometry x="-0.0975" y="3" relative="1" as="geometry">
            <mxPoint x="-1" as="offset" />
          </mxGeometry>
        </mxCell>
        <mxCell id="zRnEoflxh51FS6Fjrhx--67" value="&lt;font face=&quot;Times New Roman&quot; style=&quot;font-size: 49px;&quot;&gt;Diagrama de base de datos&amp;nbsp; relacionales PlaniApp&lt;/font&gt;" style="text;html=1;align=center;verticalAlign=middle;resizable=0;points=[];autosize=1;strokeColor=none;fillColor=none;fontSize=16;strokeWidth=15;fontStyle=1" vertex="1" parent="1">
          <mxGeometry x="74" y="101" width="999" height="71" as="geometry" />
        </mxCell>
        <mxCell id="zRnEoflxh51FS6Fjrhx--68" value="Tabla 3 asignaturas" style="shape=table;startSize=30;container=1;collapsible=0;childLayout=tableLayout;strokeColor=#000000;fontSize=16;fillColor=#00FF00;" vertex="1" parent="1">
          <mxGeometry x="-947" y="654" width="487.5700000000004" height="112.54" as="geometry" />
        </mxCell>
        <mxCell id="zRnEoflxh51FS6Fjrhx--69" value="" style="shape=tableRow;horizontal=0;startSize=0;swimlaneHead=0;swimlaneBody=0;strokeColor=inherit;top=0;left=0;bottom=0;right=0;collapsible=0;dropTarget=0;fillColor=none;points=[[0,0.5],[1,0.5]];portConstraint=eastwest;fontSize=16;" vertex="1" parent="zRnEoflxh51FS6Fjrhx--68">
          <mxGeometry y="30" width="487.5700000000004" height="40" as="geometry" />
        </mxCell>
        <mxCell id="zRnEoflxh51FS6Fjrhx--70" value="id_asignatura" style="shape=partialRectangle;html=1;whiteSpace=wrap;connectable=0;strokeColor=inherit;overflow=hidden;fillColor=none;top=0;left=0;bottom=0;right=0;pointerEvents=1;fontSize=16;" vertex="1" parent="zRnEoflxh51FS6Fjrhx--69">
          <mxGeometry width="112" height="40" as="geometry">
            <mxRectangle width="112" height="40" as="alternateBounds" />
          </mxGeometry>
        </mxCell>
        <mxCell id="zRnEoflxh51FS6Fjrhx--71" value="id_grado (clave foranea)" style="shape=partialRectangle;html=1;whiteSpace=wrap;connectable=0;strokeColor=inherit;overflow=hidden;fillColor=none;top=0;left=0;bottom=0;right=0;pointerEvents=1;fontSize=16;" vertex="1" parent="zRnEoflxh51FS6Fjrhx--69">
          <mxGeometry x="112" width="203" height="40" as="geometry">
            <mxRectangle width="203" height="40" as="alternateBounds" />
          </mxGeometry>
        </mxCell>
        <mxCell id="zRnEoflxh51FS6Fjrhx--72" value="nombre_asignatura" style="shape=partialRectangle;html=1;whiteSpace=wrap;connectable=0;strokeColor=inherit;overflow=hidden;fillColor=none;top=0;left=0;bottom=0;right=0;pointerEvents=1;fontSize=16;" vertex="1" parent="zRnEoflxh51FS6Fjrhx--69">
          <mxGeometry x="315" width="173" height="40" as="geometry">
            <mxRectangle width="173" height="40" as="alternateBounds" />
          </mxGeometry>
        </mxCell>
        <mxCell id="zRnEoflxh51FS6Fjrhx--75" value="" style="shape=tableRow;horizontal=0;startSize=0;swimlaneHead=0;swimlaneBody=0;strokeColor=inherit;top=0;left=0;bottom=0;right=0;collapsible=0;dropTarget=0;fillColor=none;points=[[0,0.5],[1,0.5]];portConstraint=eastwest;fontSize=16;" vertex="1" parent="zRnEoflxh51FS6Fjrhx--68">
          <mxGeometry y="70" width="487.5700000000004" height="43" as="geometry" />
        </mxCell>
        <mxCell id="zRnEoflxh51FS6Fjrhx--76" style="shape=partialRectangle;html=1;whiteSpace=wrap;connectable=0;strokeColor=inherit;overflow=hidden;fillColor=none;top=0;left=0;bottom=0;right=0;pointerEvents=1;fontSize=16;" vertex="1" parent="zRnEoflxh51FS6Fjrhx--75">
          <mxGeometry width="112" height="43" as="geometry">
            <mxRectangle width="112" height="43" as="alternateBounds" />
          </mxGeometry>
        </mxCell>
        <mxCell id="zRnEoflxh51FS6Fjrhx--77" value="" style="shape=partialRectangle;html=1;whiteSpace=wrap;connectable=0;strokeColor=inherit;overflow=hidden;fillColor=none;top=0;left=0;bottom=0;right=0;pointerEvents=1;fontSize=16;" vertex="1" parent="zRnEoflxh51FS6Fjrhx--75">
          <mxGeometry x="112" width="203" height="43" as="geometry">
            <mxRectangle width="203" height="43" as="alternateBounds" />
          </mxGeometry>
        </mxCell>
        <mxCell id="zRnEoflxh51FS6Fjrhx--78" value="" style="shape=partialRectangle;html=1;whiteSpace=wrap;connectable=0;strokeColor=inherit;overflow=hidden;fillColor=none;top=0;left=0;bottom=0;right=0;pointerEvents=1;fontSize=16;" vertex="1" parent="zRnEoflxh51FS6Fjrhx--75">
          <mxGeometry x="315" width="173" height="43" as="geometry">
            <mxRectangle width="173" height="43" as="alternateBounds" />
          </mxGeometry>
        </mxCell>
        <mxCell id="zRnEoflxh51FS6Fjrhx--83" style="edgeStyle=none;curved=1;rounded=0;orthogonalLoop=1;jettySize=auto;html=1;entryX=0.308;entryY=-0.015;entryDx=0;entryDy=0;entryPerimeter=0;fontSize=12;startSize=8;endSize=8;exitX=-0.003;exitY=0.825;exitDx=0;exitDy=0;exitPerimeter=0;" edge="1" parent="1" target="zRnEoflxh51FS6Fjrhx--68">
          <mxGeometry relative="1" as="geometry">
            <mxPoint x="-692" y="453" as="sourcePoint" />
            <mxPoint x="-833" y="633" as="targetPoint" />
            <Array as="points">
              <mxPoint x="-821" y="493" />
            </Array>
          </mxGeometry>
        </mxCell>
        <mxCell id="zRnEoflxh51FS6Fjrhx--84" value="&lt;font style=&quot;font-size: 22px;&quot;&gt;Clave forÃ¡nea&lt;/font&gt;" style="edgeLabel;html=1;align=center;verticalAlign=middle;resizable=0;points=[];fontSize=12;" vertex="1" connectable="0" parent="zRnEoflxh51FS6Fjrhx--83">
          <mxGeometry x="-0.1974" y="28" relative="1" as="geometry">
            <mxPoint as="offset" />
          </mxGeometry>
        </mxCell>
      </root>
    </mxGraphModel>
  </diagram>
</mxfile>
